<svg width="30" height="30" viewBox="0 0 30 30" fill="none" xmlns="http://www.w3.org/2000/svg">
<path fill-rule="evenodd" clip-rule="evenodd" d="M4.28539 0.54248C2.12074 0.54248 0.548572 1.9305 0.548572 3.83953C0.548572 5.75523 2.15817 7.20437 4.28539 7.20437C6.45004 7.20437 8.02221 5.78954 8.02221 3.80042C7.9224 1.88471 6.38142 0.54248 4.28539 0.54248ZM1.1663 8.54587C0.823199 8.54587 0.54248 8.84624 0.54248 9.21336V28.5706C0.54248 28.9378 0.823199 29.2381 1.1663 29.2381H7.40448C7.74758 29.2381 8.0283 28.9378 8.0283 28.5706V9.21336C8.0283 8.84624 7.74758 8.54587 7.40448 8.54587H1.1663ZM9.89976 9.21336C9.89976 8.84624 10.1805 8.54587 10.5236 8.54587H16.7618C17.1049 8.54587 17.3856 8.84624 17.3856 9.21336V10.2081C18.3899 9.45382 20.0487 8.54587 22.2445 8.54587C27.0729 8.54587 29.2381 12.9046 29.2381 17.2233V28.5706C29.2381 28.9378 28.9574 29.2381 28.6143 29.2381H22.9999C22.6556 29.2381 22.3761 28.9391 22.3761 28.5706V18.2245C22.3761 16.6426 21.2404 15.354 19.7931 15.2338C19.7199 15.2208 19.6471 15.2208 19.574 15.2208H19.5689H19.5639C19.4908 15.2208 19.4179 15.2208 19.3448 15.2338C17.8975 15.354 16.7618 16.6426 16.7618 18.2245V18.3914V18.5583V28.5706C16.7618 28.9391 16.4823 29.2381 16.1379 29.2381H10.5236C10.1805 29.2381 9.89976 28.9378 9.89976 28.5706V9.21336Z" fill="white"/>
</svg>
