<svg width="30" height="25" viewBox="0 0 30 25" fill="none" xmlns="http://www.w3.org/2000/svg">
<path fill-rule="evenodd" clip-rule="evenodd" d="M29.395 3.77157C28.3355 4.25018 27.1968 4.57223 26.001 4.71984C27.2188 3.97286 28.1596 2.79647 28.5992 1.39196C27.4562 2.0808 26.1901 2.58177 24.8448 2.85014C23.7677 1.6827 22.2334 0.953613 20.5321 0.953613C17.27 0.953613 14.6235 3.64633 14.6235 6.96526C14.6235 7.43492 14.6762 7.89564 14.7774 8.33398C9.86671 8.0835 5.5144 5.686 2.59967 2.04949C2.0897 2.9396 1.79955 3.97286 1.79955 5.07768C1.79955 7.16207 2.84147 9.00045 4.42852 10.0784C3.45695 10.0471 2.54692 9.77875 1.75119 9.32698C1.75119 9.35382 1.75119 9.37618 1.75119 9.40302C1.75119 12.3149 3.78667 14.7437 6.49038 15.2984C5.9936 15.437 5.47484 15.5086 4.93409 15.5086C4.55162 15.5086 4.18233 15.4728 3.82184 15.4012C4.5736 17.7853 6.75415 19.5298 9.33916 19.5745C7.32127 21.1892 4.77143 22.1465 2.00178 22.1465C1.52259 22.1465 1.05658 22.1196 0.594971 22.0659C3.20636 23.7701 6.31452 24.7631 9.6513 24.7631C20.5189 24.7631 26.4627 15.6025 26.4627 7.66304C26.4627 7.39914 26.4583 7.13971 26.4451 6.88028C27.6013 6.03936 28.6036 4.97927 29.395 3.77157Z" fill="white"/>
</svg>
